<?xml version="1.0" encoding="utf-8"?>
<!-- Generator: Adobe Illustrator 16.0.0, SVG Export Plug-In . SVG Version: 6.00 Build 0)  -->
<!DOCTYPE svg PUBLIC "-//W3C//DTD SVG 1.1//EN" "http://www.w3.org/Graphics/SVG/1.1/DTD/svg11.dtd">
<svg version="1.1" id="圖層_1" xmlns="http://www.w3.org/2000/svg" xmlns:xlink="http://www.w3.org/1999/xlink" x="0px" y="0px"
	 width="85.333px" height="47.406px" viewBox="0 0 85.333 47.406" enable-background="new 0 0 85.333 47.406" xml:space="preserve">
<g>
	<g>
		<g>
			<g>
				<path fill="#FFFFFF" d="M30.128,34.004h3.833l4.871-18.513c2.567-2.966,4.875-6.375,4.875-6.375s-0.789-0.384-1.785-0.919
					c-0.995-0.536-1.632-0.918-1.632-0.918s-2.062,3.886-5.211,7.502c-2.644,3.036-5.268,5.223-5.268,5.223l1.592,3.002
					c0,0,0.847-0.608,3.065-2.846c-0.502,1.68-1.354,4.508-2.187,7.134C30.994,31.368,30.128,34.004,30.128,34.004z"/>
				<path fill="#FFFFFF" d="M54.647,15.078l2.042-6.889h-3.566l-2.073,6.905c-6.34,0.033-10.551,0.028-10.551,0.028l-0.993,3.708
					c2.099-0.022,5.962-0.002,10.364-0.01c-0.201,0.64-5.07,16.141-5.065,16.141c-1.77,4.717-6.334,4.497-12.013,2.376
					c5.146,3.863,12.252,6.468,15.202-1.141l5.469-17.382C56.444,18.815,58,18.83,58,18.83l1.213-3.758
					C59.213,15.072,58.367,15.064,54.647,15.078z"/>
			</g>
			<g>
				<path fill="#FFFFFF" d="M11.153,21.309l-3.152,0.038c-0.556,0.007-1.043,0.37-1.208,0.901l-1.798,5.765
					c-0.102,0.326,0.145,0.658,0.487,0.653l3.559-0.041c0.514-0.007,0.964-0.345,1.113-0.836l1.691-5.557
					C11.986,21.769,11.636,21.303,11.153,21.309z M8.583,26.541l-1.24,0.001l1.014-3.236l1.248-0.007L8.583,26.541z"/>
				<path fill="#FFFFFF" d="M11.552,28.597l3.481-0.042c0.532-0.006,0.997-0.355,1.152-0.862l1.71-5.621
					c0.127-0.417-0.188-0.838-0.624-0.832l-3.22,0.038c-0.572,0.007-1.075,0.381-1.246,0.928l-1.775,5.691
					C10.922,28.247,11.187,28.601,11.552,28.597z M14.38,23.346l1.195-0.006l-1.022,3.242l-1.187,0.001L14.38,23.346z"/>
				<path fill="#FFFFFF" d="M29.365,14.061l-4.882,0.063l2.218-4.103c-0.92-0.44-2.858-1.555-3.254-1.832
					c-1.155,3.462-2.505,7.283-5.864,10.364l1.588,2.482c1.146-1.231,2.412-2.766,3.522-4.339l4.364-0.033
					c-0.266,0.839-1.249,2.896-1.249,2.896l3.062,0.011l1.56-3.968C30.724,14.856,30.166,14.051,29.365,14.061z"/>
				<path fill="#FFFFFF" d="M17.923,13.891h-6.521c-0.573,0-1.08,0.373-1.25,0.92l-1.568,5.027c-0.092,0.294,0.13,0.592,0.438,0.589
					l6.793-0.068c0.41-0.004,0.769-0.271,0.89-0.662l1.632-5.243C18.425,14.175,18.216,13.891,17.923,13.891z M14.553,18.305
					l-2.917-0.002l0.702-2.22h2.945L14.553,18.305z"/>
				<path fill="#FFFFFF" d="M23.544,23.491c0.614-2.284,1.627-5.587,1.627-5.587h-2.827c0,0-0.977,3.348-2.03,5.72
					c-1.089,2.456-2.522,4.51-3.87,6.108L3.266,30.036c0,0,4.653-14.697,4.789-15.121c0.595-1.88,1.634-2.182,3.344-2.157
					c4.883,0.006,9.329-0.014,9.329-0.014l0.831-2.766c0,0-6.656,0.014-10.962,0.014c-2.222,0-3.962,0.492-4.883,3.21
					c-0.167,0.493-4.184,13.224-5.654,17.902c-0.257,0.817,0.364,1.644,1.219,1.626l12.52-0.257c-0.858,0.774-1.426,1.18-1.426,1.18
					c0.933,0.404,2.891,1.345,2.891,1.345c2.733-2.393,5.397-6.828,5.397-6.828c0.36,2.271,1.555,5.043,2.773,6.417l2.703-2.676
					C24.053,30.904,22.879,25.965,23.544,23.491z"/>
			</g>
		</g>
		<g>
			<path fill="#FFFFFF" d="M78.443,21.964l-15.985,0.001c-0.996,0-1.874,0.656-2.154,1.612c-0.582,1.974-1.563,5.293-2.166,7.235
				c-0.124,0.394,0.171,0.792,0.584,0.792c0.655,0,1.658,0,2.861,0c-3.432,1.317-5.403,1.598-5.403,1.598l0.62,2.579
				c3.441-0.838,5.99-2.023,7.787-2.789l-0.493-1.388c2.177,0,4.618,0,6.794,0l-0.477,0.889c2.371,1.229,4.96,2.835,6.362,3.769
				l0.862-2.747c-0.348-0.238-1.881-1.111-3.307-1.91c0.87,0,1.583,0,2.066,0c0.414,0,0.776-0.27,0.895-0.667l2.248-7.505
				C79.755,22.7,79.208,21.964,78.443,21.964z M76.572,23.759l-0.333,1.118H62.665L63,23.76L76.572,23.759z M75.833,26.227
				l-0.335,1.118H61.924l0.334-1.118H75.833z M61.184,29.81l0.336-1.114h13.575l-0.336,1.114H61.184z"/>
			<path fill="#FFFFFF" d="M84.034,10.213h-8.581c0.007-0.043,0.014-0.085,0.019-0.128c0.117-1.163-0.757-2.105-1.949-2.105
				c-1.194,0-2.256,0.943-2.371,2.105c-0.005,0.043-0.005,0.085-0.008,0.128h-7.1c-1.368-0.023-2.269,0.269-2.67,1.493
				c-0.403,1.225-0.923,2.848-0.923,2.848h1.896l-0.236,0.801h2.643l-0.333,1.097l-3.215,0.074l-0.486,1.738l3.19-0.129
				l-0.386,1.269l-4.465,0.374l0.016,1.999c1.811-0.355,8.351-1.161,9.561-1.268l0.561-1.58L65.944,19.2l0.354-1.163l2.977-0.12
				l0.469-1.587l-2.945,0.067l0.315-1.043h3.073l0.518-1.711h-7.112l0.358-1.195h9.775c-0.164,0.232-0.495,0.665-1.123,1.375
				c-0.805,0.909-1.599,1.555-1.599,1.555l1.541,1.042h-1.828l-0.469,1.51h5.019l-0.474,1.558l-2.361,0.014l0.256-0.855H70.47
				l-0.537,1.788c-0.079,0.266,0.122,0.533,0.4,0.532l10.676-0.068c0.259-0.001,0.486-0.172,0.562-0.419l0.56-1.833h-2.336
				l-0.244,0.813l-2.394,0.014l0.469-1.543h5.554l0.459-1.51h-5.553l0.314-1.036l3.515-0.029l0.211-0.669h2.372l0.816-2.759
				C85.567,11.072,84.924,10.213,84.034,10.213z M82.312,12.448l-0.397,1.302h-6.746c0.208-0.21,0.411-0.406,0.606-0.578
				c-0.735-0.364-1.185-0.586-1.463-0.724H82.312z M75.725,16.419h-2.874c0.149-0.188,0.442-0.558,0.814-0.997l2.368-0.02
				L75.725,16.419z"/>
		</g>
	</g>
	<g>
		<path fill="#FFFFFF" d="M51.066,24.128l-3.385-3.265c-0.086-0.08-0.19-0.139-0.301-0.171l-2.539-0.724
			c-0.065-0.019-0.134-0.028-0.201-0.028h-3.665c-0.053,0-0.107,0.006-0.159,0.018l-3.284,0.724c-0.13,0.028-0.25,0.091-0.345,0.182
			l-3.387,3.265c-0.292,0.277-0.309,0.738-0.035,1.034l8.13,8.667c0.138,0.149,0.334,0.235,0.538,0.235s0.398-0.086,0.537-0.235
			l8.129-8.667C51.375,24.866,51.359,24.405,51.066,24.128z"/>
		<g>
			<g>
				
					<linearGradient id="SVGID_1_" gradientUnits="userSpaceOnUse" x1="262.0737" y1="3.0847" x2="262.3653" y2="5.046" gradientTransform="matrix(1 -0.0443 0 1 -221.3994 30.5139)">
					<stop  offset="0" style="stop-color:#FFFFFF"/>
					<stop  offset="0.176" style="stop-color:#FBF5D3"/>
					<stop  offset="0.5821" style="stop-color:#F2DF72"/>
					<stop  offset="0.8656" style="stop-color:#ECD036"/>
					<stop  offset="1" style="stop-color:#EACB1E"/>
				</linearGradient>
				<polygon fill="url(#SVGID_1_)" points="43.077,23.036 43.26,22.431 43.186,21.931 41.458,22.007 38.247,22.61 38.535,22.895 
					39.479,23.004 41.401,23.142 				"/>
				
					<linearGradient id="SVGID_2_" gradientUnits="userSpaceOnUse" x1="258.4194" y1="2.6047" x2="263.9886" y2="2.3452" gradientTransform="matrix(1 -0.0443 0 1 -221.3994 30.5139)">
					<stop  offset="0" style="stop-color:#FFFFFF"/>
					<stop  offset="0.2131" style="stop-color:#F9E4C7"/>
					<stop  offset="0.6008" style="stop-color:#F0B667"/>
					<stop  offset="0.8717" style="stop-color:#E9992A"/>
					<stop  offset="1" style="stop-color:#E78E12"/>
				</linearGradient>
				<polygon fill="url(#SVGID_2_)" points="37.69,21.189 37.328,21.716 37.145,22.161 37.212,22.315 37.8,22.446 39.657,21.497 
					40.976,20.466 				"/>
				
					<linearGradient id="SVGID_3_" gradientUnits="userSpaceOnUse" x1="265.3892" y1="1.2722" x2="263.7431" y2="2.2068" gradientTransform="matrix(1 -0.0443 0 1 -221.3994 30.5139)">
					<stop  offset="0" style="stop-color:#FFFFFF"/>
					<stop  offset="0.2332" style="stop-color:#C0DEEF"/>
					<stop  offset="0.6109" style="stop-color:#60ABD6"/>
					<stop  offset="0.8749" style="stop-color:#238AC6"/>
					<stop  offset="1" style="stop-color:#0B7EC0"/>
				</linearGradient>
				<polygon fill="url(#SVGID_3_)" points="44.64,20.466 40.976,20.466 41.958,21.246 43.186,21.931 44.1,21.174 				"/>
				
					<linearGradient id="SVGID_4_" gradientUnits="userSpaceOnUse" x1="268.6704" y1="2.7532" x2="258.7345" y2="2.515" gradientTransform="matrix(1 -0.0443 0 1 -221.3994 30.5139)">
					<stop  offset="0" style="stop-color:#FFFFFF"/>
					<stop  offset="0.176" style="stop-color:#FBF5D3"/>
					<stop  offset="0.5821" style="stop-color:#F2DF72"/>
					<stop  offset="0.8656" style="stop-color:#ECD036"/>
					<stop  offset="1" style="stop-color:#EACB1E"/>
				</linearGradient>
				<polygon fill="url(#SVGID_4_)" points="46.522,22.334 47.026,22.165 47.116,21.894 47.1,21.692 46.273,21.171 44.64,20.466 
					43.186,21.931 45.081,22.322 				"/>
				
					<linearGradient id="SVGID_5_" gradientUnits="userSpaceOnUse" x1="268.6138" y1="3.8381" x2="258.7512" y2="3.6017" gradientTransform="matrix(1 -0.0443 0 1 -221.3994 30.5139)">
					<stop  offset="0" style="stop-color:#FFFFFF"/>
					<stop  offset="0.0301" style="stop-color:#F4F9FB"/>
					<stop  offset="0.2386" style="stop-color:#AFCFE5"/>
					<stop  offset="0.4357" style="stop-color:#75ADD1"/>
					<stop  offset="0.6159" style="stop-color:#4892C3"/>
					<stop  offset="0.7756" style="stop-color:#287FB8"/>
					<stop  offset="0.9091" style="stop-color:#1473B1"/>
					<stop  offset="1" style="stop-color:#0D6FAF"/>
				</linearGradient>
				<polygon fill="url(#SVGID_5_)" points="43.775,23.039 46.522,22.334 43.186,21.931 43.077,23.036 43.347,23.135 				"/>
				
					<linearGradient id="SVGID_6_" gradientUnits="userSpaceOnUse" x1="268.894" y1="2.988" x2="266.5252" y2="1.8811" gradientTransform="matrix(1 -0.0443 0 1 -221.3994 30.5139)">
					<stop  offset="0" style="stop-color:#FFFFFF"/>
					<stop  offset="0.0891" style="stop-color:#F4F9EB"/>
					<stop  offset="0.5383" style="stop-color:#C0D98A"/>
					<stop  offset="0.8515" style="stop-color:#9FC64E"/>
					<stop  offset="1" style="stop-color:#92BE36"/>
				</linearGradient>
				<polygon fill="url(#SVGID_6_)" points="47.179,21.189 44.64,20.466 47.1,21.692 47.214,21.474 				"/>
				
					<linearGradient id="SVGID_7_" gradientUnits="userSpaceOnUse" x1="260.9614" y1="3.6091" x2="263.1487" y2="2.521" gradientTransform="matrix(1 -0.0443 0 1 -221.3994 30.5139)">
					<stop  offset="0" style="stop-color:#FFFFFF"/>
					<stop  offset="0.2332" style="stop-color:#C0DEEF"/>
					<stop  offset="0.6109" style="stop-color:#60ABD6"/>
					<stop  offset="0.8749" style="stop-color:#238AC6"/>
					<stop  offset="1" style="stop-color:#0B7EC0"/>
				</linearGradient>
				<polygon fill="url(#SVGID_7_)" points="38.247,22.61 43.186,21.931 40.976,20.466 37.8,22.446 37.837,22.627 				"/>
			</g>
			<g>
				<g>
					<polygon fill="#00437C" points="42.434,33.478 34.126,24.543 35.422,24.995 37.754,26.772 38.974,28.322 					"/>
					<polygon fill="#008CC2" points="41.375,26.746 41.496,28.268 42.434,33.478 37.754,26.772 37.477,26.369 					"/>
					<polygon fill="#3DB8EB" points="42.434,27.278 42.632,28.989 42.434,33.478 40.925,26.62 					"/>
					
						<linearGradient id="SVGID_8_" gradientUnits="userSpaceOnUse" x1="-1093.0044" y1="21.0618" x2="-1090.3159" y2="24.9363" gradientTransform="matrix(-1 0 0 1 -1055.4297 0)">
						<stop  offset="0" style="stop-color:#FFFFFF"/>
						<stop  offset="0.2354" style="stop-color:#B5D0E7"/>
						<stop  offset="0.5607" style="stop-color:#5593C8"/>
						<stop  offset="0.788" style="stop-color:#186DB5"/>
						<stop  offset="0.8957" style="stop-color:#005EAD"/>
					</linearGradient>
					<polygon fill="url(#SVGID_8_)" points="37.69,21.189 37.842,22.165 36.333,23.162 34.126,24.543 					"/>
					
						<linearGradient id="SVGID_9_" gradientUnits="userSpaceOnUse" x1="-1097.3008" y1="24.7664" x2="-1095.2736" y2="26.735" gradientTransform="matrix(-1 0 0 1 -1055.4297 0)">
						<stop  offset="0" style="stop-color:#FFFFFF"/>
						<stop  offset="0.2628" style="stop-color:#F9EFB5"/>
						<stop  offset="0.6259" style="stop-color:#F2DB55"/>
						<stop  offset="0.8798" style="stop-color:#EDCE18"/>
						<stop  offset="1" style="stop-color:#EBC900"/>
					</linearGradient>
					<polygon fill="url(#SVGID_9_)" points="38.383,25.438 40.754,22.794 41.505,24.032 42.434,25.647 42.434,27.278 37.754,26.772 
											"/>
					
						<linearGradient id="SVGID_10_" gradientUnits="userSpaceOnUse" x1="-1091.6387" y1="22.7224" x2="-1093.9399" y2="24.2794" gradientTransform="matrix(-1 0 0 1 -1055.4297 0)">
						<stop  offset="0.1202" style="stop-color:#FFFFFF"/>
						<stop  offset="0.1889" style="stop-color:#FEFBF7"/>
						<stop  offset="0.2927" style="stop-color:#FDEFE3"/>
						<stop  offset="0.4185" style="stop-color:#FBDDC1"/>
						<stop  offset="0.5604" style="stop-color:#F7C392"/>
						<stop  offset="0.5695" style="stop-color:#F7C18F"/>
						<stop  offset="0.6752" style="stop-color:#F5AF70"/>
						<stop  offset="0.9049" style="stop-color:#EF8022"/>
						<stop  offset="1" style="stop-color:#EC6C00"/>
					</linearGradient>
					<polygon fill="url(#SVGID_10_)" points="36.824,24.171 37.771,22.345 37.842,22.165 40.754,22.794 38.461,25.835 
						37.754,26.772 					"/>
					<linearGradient id="SVGID_11_" gradientUnits="userSpaceOnUse" x1="38.4126" y1="23.6882" x2="35.7046" y2="25.8458">
						<stop  offset="0" style="stop-color:#FFFFFF"/>
						<stop  offset="0.1088" style="stop-color:#FAE6EF"/>
						<stop  offset="0.5482" style="stop-color:#E785B3"/>
						<stop  offset="0.8547" style="stop-color:#DC498D"/>
						<stop  offset="1" style="stop-color:#D7317E"/>
					</linearGradient>
					<polygon fill="url(#SVGID_11_)" points="37.842,22.165 37.754,26.772 34.126,24.543 					"/>
				</g>
				<polygon fill="#054E95" points="42.434,27.278 43.055,26.984 43.544,27.087 42.434,33.478 				"/>
				<polygon fill="#192548" points="42.434,33.478 50.741,24.543 49.395,24.874 47.116,26.772 45.534,28.755 				"/>
				
					<linearGradient id="SVGID_12_" gradientUnits="userSpaceOnUse" x1="268.561" y1="25.6355" x2="266.8946" y2="22.3314" gradientTransform="matrix(1 0 0 1 -221.3994 0)">
					<stop  offset="0" style="stop-color:#FFFFFF"/>
					<stop  offset="0.2628" style="stop-color:#B5DFE6"/>
					<stop  offset="0.6259" style="stop-color:#55B5C5"/>
					<stop  offset="0.8798" style="stop-color:#189BB0"/>
					<stop  offset="1" style="stop-color:#0091A8"/>
				</linearGradient>
				<polygon fill="url(#SVGID_12_)" points="47.475,24.348 47.096,22.345 47.026,22.165 44.115,22.794 46.184,25.765 47.116,26.772 
									"/>
				<polygon fill="#003C82" points="45.498,26.948 44.381,28.619 42.434,33.478 47.116,26.772 47.116,26.772 46.155,26.684 				"/>
				<polygon fill="#036EB7" points="43.293,27.022 42.434,33.478 45.586,26.772 44.651,26.62 				"/>
				
					<linearGradient id="SVGID_13_" gradientUnits="userSpaceOnUse" x1="268.6938" y1="21.0642" x2="271.3812" y2="24.9371" gradientTransform="matrix(1 0 0 1 -221.3994 0)">
					<stop  offset="0" style="stop-color:#FFFFFF"/>
					<stop  offset="0.2012" style="stop-color:#CBE7F5"/>
					<stop  offset="0.5948" style="stop-color:#6ABBE4"/>
					<stop  offset="0.8697" style="stop-color:#2EA0D8"/>
					<stop  offset="1" style="stop-color:#1695D4"/>
				</linearGradient>
				<polygon fill="url(#SVGID_13_)" points="47.179,21.189 47.026,22.165 48.536,23.162 50.741,24.543 				"/>
				
					<linearGradient id="SVGID_14_" gradientUnits="userSpaceOnUse" x1="268.5327" y1="23.7346" x2="270.4672" y2="25.8065" gradientTransform="matrix(1 0 0 1 -221.3994 0)">
					<stop  offset="0" style="stop-color:#FFFFFF"/>
					<stop  offset="0.1049" style="stop-color:#FAE7EF"/>
					<stop  offset="0.5462" style="stop-color:#E786B0"/>
					<stop  offset="0.8541" style="stop-color:#DC4A88"/>
					<stop  offset="1" style="stop-color:#D73279"/>
				</linearGradient>
				<polygon fill="url(#SVGID_14_)" points="47.026,22.165 47.116,26.772 50.741,24.543 				"/>
				
					<linearGradient id="SVGID_15_" gradientUnits="userSpaceOnUse" x1="264.396" y1="24.7664" x2="266.4236" y2="26.7354" gradientTransform="matrix(1 0 0 1 -221.3994 0)">
					<stop  offset="0" style="stop-color:#FFFFFF"/>
					<stop  offset="0.1455" style="stop-color:#DCE9F4"/>
					<stop  offset="0.5667" style="stop-color:#7BADD7"/>
					<stop  offset="0.8607" style="stop-color:#3F87C4"/>
					<stop  offset="1" style="stop-color:#2778BD"/>
				</linearGradient>
				<polygon fill="url(#SVGID_15_)" points="44.115,22.794 43.363,24.032 42.223,26.015 42.434,27.278 47.116,26.772 				"/>
				<linearGradient id="SVGID_16_" gradientUnits="userSpaceOnUse" x1="42.4346" y1="21.8313" x2="42.4346" y2="26.3963">
					<stop  offset="0" style="stop-color:#FFFFFF"/>
					<stop  offset="0.1096" style="stop-color:#EBF4E1"/>
					<stop  offset="0.4793" style="stop-color:#A9D280"/>
					<stop  offset="0.7372" style="stop-color:#80BC44"/>
					<stop  offset="0.8594" style="stop-color:#70B42C"/>
				</linearGradient>
				<polygon fill="url(#SVGID_16_)" points="40.754,22.794 44.115,22.794 42.434,27.278 				"/>
			</g>
		</g>
	</g>
</g>
</svg>
